# xmcd
# 
# Track frame offsets:
#     150
#     7322
#     44340
#     62890
#     83842
#     109662
#     143242
#     168740
#     177980
#     210045
#     237647
#     268587
# 
# Disc length: 4195
# 
# Revision: 6
# Processed by: cddbd v1.5.2PL0 Copyright (c) Steve Scherf et al.
# Submitted via: BonkEnc v1.0.6
# 
DISCID=ab10610c
DTITLE=Gov't Mule - Gov't Mule
DYEAR=1995
DGENRE=Blues
TTITLE0=Grinnin' In Your Face
TTITLE1=Mother Earth
TTITLE2=Rocking Horse
TTITLE3=Monkey Hill
TTITLE4=Temporary Saint
TTITLE5=Trane
TTITLE6=Mule
TTITLE7=Dolphineus
TTITLE8=Painted Silver Light
TTITLE9=Mr. Big
TTITLE10=Left Coast Groovies
TTITLE11=World Of Difference
EXTD=YEAR: 1995
EXTT0=
EXTT1=
EXTT2=
EXTT3=
EXTT4=
EXTT5=
EXTT6=
EXTT7=
EXTT8=
EXTT9=
EXTT10=
EXTT11=
PLAYORDER=
